<svg id="visual" viewBox="0 0 960 300" width="960" height="300" xmlns="http://www.w3.org/2000/svg" xmlns:xlink="http://www.w3.org/1999/xlink" version="1.1"><rect x="0" y="0" width="960" height="300" fill="#001220"></rect><path d="M0 218L32 216C64 214 128 210 192 207.2C256 204.3 320 202.7 384 209.2C448 215.7 512 230.3 576 235.8C640 241.3 704 237.7 768 235.5C832 233.3 896 232.7 928 232.3L960 232L960 301L928 301C896 301 832 301 768 301C704 301 640 301 576 301C512 301 448 301 384 301C320 301 256 301 192 301C128 301 64 301 32 301L0 301Z" fill="#f98322"></path><path d="M0 248L32 243.7C64 239.3 128 230.7 192 229C256 227.3 320 232.7 384 235.7C448 238.7 512 239.3 576 243.2C640 247 704 254 768 257.2C832 260.3 896 259.7 928 259.3L960 259L960 301L928 301C896 301 832 301 768 301C704 301 640 301 576 301C512 301 448 301 384 301C320 301 256 301 192 301C128 301 64 301 32 301L0 301Z" fill="#e16118"></path><path d="M0 269L32 264.8C64 260.7 128 252.3 192 251.8C256 251.3 320 258.7 384 259.2C448 259.7 512 253.3 576 252C640 250.7 704 254.3 768 253C832 251.7 896 245.3 928 242.2L960 239L960 301L928 301C896 301 832 301 768 301C704 301 640 301 576 301C512 301 448 301 384 301C320 301 256 301 192 301C128 301 64 301 32 301L0 301Z" fill="#c83d11"></path><path d="M0 259L32 261.3C64 263.7 128 268.3 192 272.5C256 276.7 320 280.3 384 279.8C448 279.3 512 274.7 576 272.3C640 270 704 270 768 270.3C832 270.7 896 271.3 928 271.7L960 272L960 301L928 301C896 301 832 301 768 301C704 301 640 301 576 301C512 301 448 301 384 301C320 301 256 301 192 301C128 301 64 301 32 301L0 301Z" fill="#ad0c0c"></path></svg>