<svg id="visual" viewBox="0 0 960 300" width="960" height="300" xmlns="http://www.w3.org/2000/svg" xmlns:xlink="http://www.w3.org/1999/xlink" version="1.1"><rect x="0" y="0" width="960" height="300" fill="#001220"></rect><path d="M0 106L22.8 103.5C45.7 101 91.3 96 137 93C182.7 90 228.3 89 274 90C319.7 91 365.3 94 411.2 97C457 100 503 103 548.8 100C594.7 97 640.3 88 686 86.8C731.7 85.7 777.3 92.3 823 98.2C868.7 104 914.3 109 937.2 111.5L960 114L960 0L937.2 0C914.3 0 868.7 0 823 0C777.3 0 731.7 0 686 0C640.3 0 594.7 0 548.8 0C503 0 457 0 411.2 0C365.3 0 319.7 0 274 0C228.3 0 182.7 0 137 0C91.3 0 45.7 0 22.8 0L0 0Z" fill="#fcaf3c"></path><path d="M0 60L22.8 62.3C45.7 64.7 91.3 69.3 137 69.8C182.7 70.3 228.3 66.7 274 66.3C319.7 66 365.3 69 411.2 69.3C457 69.7 503 67.3 548.8 68.5C594.7 69.7 640.3 74.3 686 73.5C731.7 72.7 777.3 66.3 823 66.8C868.7 67.3 914.3 74.7 937.2 78.3L960 82L960 0L937.2 0C914.3 0 868.7 0 823 0C777.3 0 731.7 0 686 0C640.3 0 594.7 0 548.8 0C503 0 457 0 411.2 0C365.3 0 319.7 0 274 0C228.3 0 182.7 0 137 0C91.3 0 45.7 0 22.8 0L0 0Z" fill="#fba230"></path><path d="M0 63L22.8 62.3C45.7 61.7 91.3 60.3 137 58.2C182.7 56 228.3 53 274 55.8C319.7 58.7 365.3 67.3 411.2 70.8C457 74.3 503 72.7 548.8 68.5C594.7 64.3 640.3 57.7 686 54.3C731.7 51 777.3 51 823 52.3C868.7 53.7 914.3 56.3 937.2 57.7L960 59L960 0L937.2 0C914.3 0 868.7 0 823 0C777.3 0 731.7 0 686 0C640.3 0 594.7 0 548.8 0C503 0 457 0 411.2 0C365.3 0 319.7 0 274 0C228.3 0 182.7 0 137 0C91.3 0 45.7 0 22.8 0L0 0Z" fill="#fa9424"></path><path d="M0 32L22.8 32.2C45.7 32.3 91.3 32.7 137 34.5C182.7 36.3 228.3 39.7 274 41.3C319.7 43 365.3 43 411.2 41.8C457 40.7 503 38.3 548.8 39.7C594.7 41 640.3 46 686 47C731.7 48 777.3 45 823 43.5C868.7 42 914.3 42 937.2 42L960 42L960 0L937.2 0C914.3 0 868.7 0 823 0C777.3 0 731.7 0 686 0C640.3 0 594.7 0 548.8 0C503 0 457 0 411.2 0C365.3 0 319.7 0 274 0C228.3 0 182.7 0 137 0C91.3 0 45.7 0 22.8 0L0 0Z" fill="#f98619"></path><path d="M0 14L22.8 14C45.7 14 91.3 14 137 16C182.7 18 228.3 22 274 22.5C319.7 23 365.3 20 411.2 21.2C457 22.3 503 27.7 548.8 28.3C594.7 29 640.3 25 686 22.5C731.7 20 777.3 19 823 20.8C868.7 22.7 914.3 27.3 937.2 29.7L960 32L960 0L937.2 0C914.3 0 868.7 0 823 0C777.3 0 731.7 0 686 0C640.3 0 594.7 0 548.8 0C503 0 457 0 411.2 0C365.3 0 319.7 0 274 0C228.3 0 182.7 0 137 0C91.3 0 45.7 0 22.8 0L0 0Z" fill="#f7770f"></path></svg>