<svg id="visual" viewBox="0 0 960 300" width="960" height="300" xmlns="http://www.w3.org/2000/svg" xmlns:xlink="http://www.w3.org/1999/xlink" version="1.1"><rect x="0" y="0" width="960" height="300" fill="#001220"></rect><path d="M0 80L32 80C64 80 128 80 192 76.3C256 72.7 320 65.3 384 66.5C448 67.7 512 77.3 576 80.8C640 84.3 704 81.7 768 75.7C832 69.7 896 60.3 928 55.7L960 51L960 0L928 0C896 0 832 0 768 0C704 0 640 0 576 0C512 0 448 0 384 0C320 0 256 0 192 0C128 0 64 0 32 0L0 0Z" fill="#f98322"></path><path d="M0 58L32 59C64 60 128 62 192 59.2C256 56.3 320 48.7 384 44.2C448 39.7 512 38.3 576 43.7C640 49 704 61 768 64C832 67 896 61 928 58L960 55L960 0L928 0C896 0 832 0 768 0C704 0 640 0 576 0C512 0 448 0 384 0C320 0 256 0 192 0C128 0 64 0 32 0L0 0Z" fill="#e16118"></path><path d="M0 34L32 32.2C64 30.3 128 26.7 192 30.5C256 34.3 320 45.7 384 48.2C448 50.7 512 44.3 576 41C640 37.7 704 37.3 768 35C832 32.7 896 28.3 928 26.2L960 24L960 0L928 0C896 0 832 0 768 0C704 0 640 0 576 0C512 0 448 0 384 0C320 0 256 0 192 0C128 0 64 0 32 0L0 0Z" fill="#c83d11"></path><path d="M0 38L32 38.2C64 38.3 128 38.7 192 34.3C256 30 320 21 384 17C448 13 512 14 576 15C640 16 704 17 768 21C832 25 896 32 928 35.5L960 39L960 0L928 0C896 0 832 0 768 0C704 0 640 0 576 0C512 0 448 0 384 0C320 0 256 0 192 0C128 0 64 0 32 0L0 0Z" fill="#ad0c0c"></path></svg>