<svg id="visual" viewBox="0 0 960 300" width="960" height="300" xmlns="http://www.w3.org/2000/svg" xmlns:xlink="http://www.w3.org/1999/xlink" version="1.1"><rect x="0" y="0" width="960" height="300" fill="#001220"></rect><path d="M0 192L22.8 194.5C45.7 197 91.3 202 137 205C182.7 208 228.3 209 274 208C319.7 207 365.3 204 411.2 201C457 198 503 195 548.8 198C594.7 201 640.3 210 686 211.2C731.7 212.3 777.3 205.7 823 199.8C868.7 194 914.3 189 937.2 186.5L960 184L960 301L937.2 301C914.3 301 868.7 301 823 301C777.3 301 731.7 301 686 301C640.3 301 594.7 301 548.8 301C503 301 457 301 411.2 301C365.3 301 319.7 301 274 301C228.3 301 182.7 301 137 301C91.3 301 45.7 301 22.8 301L0 301Z" fill="#fcaf3c"></path><path d="M0 238L22.8 235.7C45.7 233.3 91.3 228.7 137 228.2C182.7 227.7 228.3 231.3 274 231.7C319.7 232 365.3 229 411.2 228.7C457 228.3 503 230.7 548.8 229.5C594.7 228.3 640.3 223.7 686 224.5C731.7 225.3 777.3 231.7 823 231.2C868.7 230.7 914.3 223.3 937.2 219.7L960 216L960 301L937.2 301C914.3 301 868.7 301 823 301C777.3 301 731.7 301 686 301C640.3 301 594.7 301 548.8 301C503 301 457 301 411.2 301C365.3 301 319.7 301 274 301C228.3 301 182.7 301 137 301C91.3 301 45.7 301 22.8 301L0 301Z" fill="#fba230"></path><path d="M0 235L22.8 235.7C45.7 236.3 91.3 237.7 137 239.8C182.7 242 228.3 245 274 242.2C319.7 239.3 365.3 230.7 411.2 227.2C457 223.7 503 225.3 548.8 229.5C594.7 233.7 640.3 240.3 686 243.7C731.7 247 777.3 247 823 245.7C868.7 244.3 914.3 241.7 937.2 240.3L960 239L960 301L937.2 301C914.3 301 868.7 301 823 301C777.3 301 731.7 301 686 301C640.3 301 594.7 301 548.8 301C503 301 457 301 411.2 301C365.3 301 319.7 301 274 301C228.3 301 182.7 301 137 301C91.3 301 45.7 301 22.8 301L0 301Z" fill="#fa9424"></path><path d="M0 266L22.8 265.8C45.7 265.7 91.3 265.3 137 263.5C182.7 261.7 228.3 258.3 274 256.7C319.7 255 365.3 255 411.2 256.2C457 257.3 503 259.7 548.8 258.3C594.7 257 640.3 252 686 251C731.7 250 777.3 253 823 254.5C868.7 256 914.3 256 937.2 256L960 256L960 301L937.2 301C914.3 301 868.7 301 823 301C777.3 301 731.7 301 686 301C640.3 301 594.7 301 548.8 301C503 301 457 301 411.2 301C365.3 301 319.7 301 274 301C228.3 301 182.7 301 137 301C91.3 301 45.7 301 22.8 301L0 301Z" fill="#f98619"></path><path d="M0 284L22.8 284C45.7 284 91.3 284 137 282C182.7 280 228.3 276 274 275.5C319.7 275 365.3 278 411.2 276.8C457 275.7 503 270.3 548.8 269.7C594.7 269 640.3 273 686 275.5C731.7 278 777.3 279 823 277.2C868.7 275.3 914.3 270.7 937.2 268.3L960 266L960 301L937.2 301C914.3 301 868.7 301 823 301C777.3 301 731.7 301 686 301C640.3 301 594.7 301 548.8 301C503 301 457 301 411.2 301C365.3 301 319.7 301 274 301C228.3 301 182.7 301 137 301C91.3 301 45.7 301 22.8 301L0 301Z" fill="#f7770f"></path></svg>