<svg id="visual" viewBox="0 0 930 150" width="930" height="150" xmlns="http://www.w3.org/2000/svg" xmlns:xlink="http://www.w3.org/1999/xlink" version="1.1"><path d="M0 52L31 48C62 44 124 36 186 36.8C248 37.7 310 47.3 372 57.7C434 68 496 79 558 82C620 85 682 80 744 70C806 60 868 45 899 37.5L930 30L930 0L899 0C868 0 806 0 744 0C682 0 620 0 558 0C496 0 434 0 372 0C310 0 248 0 186 0C124 0 62 0 31 0L0 0Z" fill="#ff0000"></path><path d="M0 85L31 83.8C62 82.7 124 80.3 186 83.3C248 86.3 310 94.7 372 100.8C434 107 496 111 558 110C620 109 682 103 744 94.2C806 85.3 868 73.7 899 67.8L930 62L930 28L899 35.5C868 43 806 58 744 68C682 78 620 83 558 80C496 77 434 66 372 55.7C310 45.3 248 35.7 186 34.8C124 34 62 42 31 46L0 50Z" fill="#ff7d00"></path><path d="M0 151L31 151C62 151 124 151 186 151C248 151 310 151 372 151C434 151 496 151 558 151C620 151 682 151 744 151C806 151 868 151 899 151L930 151L930 60L899 65.8C868 71.7 806 83.3 744 92.2C682 101 620 107 558 108C496 109 434 105 372 98.8C310 92.7 248 84.3 186 81.3C124 78.3 62 80.7 31 81.8L0 83Z" fill="#ffbe00"></path></svg>